<mxfile host="65bd71144e">
    <diagram id="FiCiLrO8Qq3oOYBZK2mG" name="Screen behaviour loan apps">
        <mxGraphModel dx="3075" dy="1415" grid="1" gridSize="10" guides="1" tooltips="1" connect="1" arrows="1" fold="1" page="1" pageScale="1" pageWidth="850" pageHeight="1100" math="0" shadow="0">
            <root>
                <mxCell id="0"/>
                <mxCell id="1" parent="0"/>
                <mxCell id="75" value="login" style="rounded=0;whiteSpace=wrap;html=1;" vertex="1" parent="1">
                    <mxGeometry x="100" y="230" width="110" height="30" as="geometry"/>
                </mxCell>
                <mxCell id="76" value="sign up" style="rounded=0;whiteSpace=wrap;html=1;" vertex="1" parent="1">
                    <mxGeometry x="100" y="180" width="110" height="30" as="geometry"/>
                </mxCell>
                <mxCell id="77" value="password" style="rounded=0;whiteSpace=wrap;html=1;" vertex="1" parent="1">
                    <mxGeometry x="330" y="230" width="110" height="30" as="geometry"/>
                </mxCell>
                <mxCell id="78" value="email" style="rounded=0;whiteSpace=wrap;html=1;" vertex="1" parent="1">
                    <mxGeometry x="330" y="180" width="110" height="30" as="geometry"/>
                </mxCell>
                <mxCell id="79" value="biometric" style="rounded=0;whiteSpace=wrap;html=1;" vertex="1" parent="1">
                    <mxGeometry x="330" y="320" width="110" height="30" as="geometry"/>
                </mxCell>
                <mxCell id="80" value="Caution! amount of loan should be less than or &#10;equal to Rp.12.000.000,00" style="text;strokeColor=none;fillColor=none;align=left;verticalAlign=middle;spacingLeft=4;spacingRight=4;overflow=hidden;points=[[0,0.5],[1,0.5]];portConstraint=eastwest;rotatable=0;" vertex="1" parent="1">
                    <mxGeometry x="891" y="210" width="270" height="30" as="geometry"/>
                </mxCell>
                <mxCell id="81" value="" style="group" vertex="1" connectable="0" parent="1">
                    <mxGeometry x="891" y="175" width="260" height="30" as="geometry"/>
                </mxCell>
                <mxCell id="82" value="&amp;nbsp;amount of loan&lt;span style=&quot;white-space: pre&quot;&gt;&#9;&lt;/span&gt;Rp." style="rounded=0;whiteSpace=wrap;html=1;align=left;" vertex="1" parent="81">
                    <mxGeometry width="260" height="30" as="geometry"/>
                </mxCell>
                <mxCell id="83" value="" style="endArrow=none;html=1;exitX=0.483;exitY=-0.033;exitDx=0;exitDy=0;exitPerimeter=0;" edge="1" parent="81">
                    <mxGeometry width="50" height="50" relative="1" as="geometry">
                        <mxPoint x="95.41000000000008" y="29.00999999999999" as="sourcePoint"/>
                        <mxPoint x="95" as="targetPoint"/>
                    </mxGeometry>
                </mxCell>
                <mxCell id="84" value="" style="group" vertex="1" connectable="0" parent="1">
                    <mxGeometry x="880" y="265" width="300" height="135" as="geometry"/>
                </mxCell>
                <mxCell id="85" value="&amp;nbsp;loan term (in months)&lt;span style=&quot;white-space: pre&quot;&gt;&#9;&lt;/span&gt;" style="rounded=0;whiteSpace=wrap;html=1;align=left;" vertex="1" parent="84">
                    <mxGeometry x="11" width="260" height="30" as="geometry"/>
                </mxCell>
                <mxCell id="86" value="" style="endArrow=none;html=1;exitX=0.483;exitY=-0.033;exitDx=0;exitDy=0;exitPerimeter=0;" edge="1" parent="84">
                    <mxGeometry width="50" height="50" relative="1" as="geometry">
                        <mxPoint x="140.41000000000008" y="29.00999999999999" as="sourcePoint"/>
                        <mxPoint x="140" as="targetPoint"/>
                    </mxGeometry>
                </mxCell>
                <mxCell id="87" value="OK" style="rounded=0;whiteSpace=wrap;html=1;" vertex="1" parent="84">
                    <mxGeometry x="81" y="105" width="120" height="30" as="geometry"/>
                </mxCell>
                <mxCell id="88" value="Caution! loan term should be less than or &#10;equal to 12 months." style="text;strokeColor=none;fillColor=none;align=left;verticalAlign=middle;spacingLeft=4;spacingRight=4;overflow=hidden;points=[[0,0.5],[1,0.5]];portConstraint=eastwest;rotatable=0;" vertex="1" parent="1">
                    <mxGeometry x="891" y="300" width="270" height="30" as="geometry"/>
                </mxCell>
                <mxCell id="89" value="Loan Accepted!" style="rounded=0;whiteSpace=wrap;html=1;" vertex="1" parent="1">
                    <mxGeometry x="1601" y="175" width="270" height="100" as="geometry"/>
                </mxCell>
                <mxCell id="90" value="Loan Declined! You still have a loan which still not paid off yet." style="rounded=0;whiteSpace=wrap;html=1;" vertex="1" parent="1">
                    <mxGeometry x="1601" y="350" width="270" height="100" as="geometry"/>
                </mxCell>
                <mxCell id="91" value="Home" style="rounded=0;whiteSpace=wrap;html=1;fillColor=#B3FF66;" vertex="1" parent="1">
                    <mxGeometry x="610" y="110" width="110" height="30" as="geometry"/>
                </mxCell>
                <mxCell id="92" value="First look" style="rounded=0;whiteSpace=wrap;html=1;fillColor=#B3FF66;" vertex="1" parent="1">
                    <mxGeometry x="100" y="110" width="110" height="30" as="geometry"/>
                </mxCell>
                <mxCell id="93" value="Login" style="rounded=0;whiteSpace=wrap;html=1;fillColor=#B3FF66;" vertex="1" parent="1">
                    <mxGeometry x="330" y="110" width="110" height="30" as="geometry"/>
                </mxCell>
                <mxCell id="94" value="Loan Application" style="rounded=0;whiteSpace=wrap;html=1;fillColor=#B3FF66;" vertex="1" parent="1">
                    <mxGeometry x="961" y="110" width="110" height="30" as="geometry"/>
                </mxCell>
                <mxCell id="95" value="Loan Application Result" style="rounded=0;whiteSpace=wrap;html=1;fillColor=#B3FF66;" vertex="1" parent="1">
                    <mxGeometry x="1681" y="110" width="110" height="30" as="geometry"/>
                </mxCell>
                <mxCell id="96" value="Simple information of the newest loan (status active with color ex:green, not-active with grey):&lt;br&gt;start loan date&lt;br&gt;amount of loan&lt;br&gt;loan term" style="rounded=0;whiteSpace=wrap;html=1;" vertex="1" parent="1">
                    <mxGeometry x="875" y="638" width="270" height="90" as="geometry"/>
                </mxCell>
                <mxCell id="97" value="Simple information of the second last loan (status active with color ex:green, not-active with grey):&lt;br&gt;start loan date&lt;br&gt;amount of loan&lt;br&gt;loan term" style="rounded=0;whiteSpace=wrap;html=1;" vertex="1" parent="1">
                    <mxGeometry x="875" y="738" width="270" height="90" as="geometry"/>
                </mxCell>
                <mxCell id="98" value="Simple information of the third last loan (status active with color ex:green, not-active with grey):&lt;br&gt;start loan date&lt;br&gt;amount of loan&lt;br&gt;loan term" style="rounded=0;whiteSpace=wrap;html=1;" vertex="1" parent="1">
                    <mxGeometry x="875" y="838" width="270" height="90" as="geometry"/>
                </mxCell>
                <mxCell id="99" value="If loan declined:" style="text;html=1;strokeColor=none;fillColor=none;align=center;verticalAlign=middle;whiteSpace=wrap;rounded=0;" vertex="1" parent="1">
                    <mxGeometry x="1631" y="307.5" width="210" height="30" as="geometry"/>
                </mxCell>
                <mxCell id="100" value="Loan Record" style="rounded=0;whiteSpace=wrap;html=1;fillColor=#B3FF66;" vertex="1" parent="1">
                    <mxGeometry x="961" y="568" width="110" height="30" as="geometry"/>
                </mxCell>
                <mxCell id="101" value="" style="endArrow=classic;html=1;" edge="1" parent="1">
                    <mxGeometry width="50" height="50" relative="1" as="geometry">
                        <mxPoint x="1170" y="638" as="sourcePoint"/>
                        <mxPoint x="1170" y="928" as="targetPoint"/>
                    </mxGeometry>
                </mxCell>
                <mxCell id="102" value="sort by newest to oldest" style="text;html=1;strokeColor=none;fillColor=none;align=center;verticalAlign=middle;whiteSpace=wrap;rounded=0;rotation=90;" vertex="1" parent="1">
                    <mxGeometry x="1105" y="768" width="170" height="30" as="geometry"/>
                </mxCell>
                <mxCell id="103" value="Total amount of loan&lt;br&gt;Total amount of loan term&lt;br&gt;Total loan that has been paid&lt;br&gt;Total amount of remaining loan&lt;br&gt;Total amount of remaining loan term" style="rounded=0;whiteSpace=wrap;html=1;" vertex="1" parent="1">
                    <mxGeometry x="1255" y="639" width="270" height="101" as="geometry"/>
                </mxCell>
                <mxCell id="104" value="Loan Information" style="rounded=0;whiteSpace=wrap;html=1;fillColor=#B3FF66;" vertex="1" parent="1">
                    <mxGeometry x="1335" y="568" width="110" height="30" as="geometry"/>
                </mxCell>
                <mxCell id="105" value="&lt;font style=&quot;font-size: 8px&quot;&gt;Print amount of loan and loan term that user input in the last step. Ask to make sure user about amount of loan and loan term that user's input is right or not.&lt;/font&gt;&lt;br&gt;You make a loan application Rp.xx,xxx,xxx,00 &lt;br&gt;for n months.&lt;br&gt;Are you sure you?&amp;nbsp;" style="rounded=0;whiteSpace=wrap;html=1;" vertex="1" parent="1">
                    <mxGeometry x="1251" y="175" width="270" height="100" as="geometry"/>
                </mxCell>
                <mxCell id="106" value="Sure, continue" style="rounded=0;whiteSpace=wrap;html=1;" vertex="1" parent="1">
                    <mxGeometry x="1401" y="290" width="120" height="30" as="geometry"/>
                </mxCell>
                <mxCell id="107" value="No, cancel" style="rounded=0;whiteSpace=wrap;html=1;" vertex="1" parent="1">
                    <mxGeometry x="1251" y="290" width="120" height="30" as="geometry"/>
                </mxCell>
                <mxCell id="108" value="Confirmation Loan Application" style="rounded=0;whiteSpace=wrap;html=1;fillColor=#B3FF66;" vertex="1" parent="1">
                    <mxGeometry x="1331" y="110" width="110" height="30" as="geometry"/>
                </mxCell>
                <mxCell id="109" value="Home" style="rounded=0;whiteSpace=wrap;html=1;fillColor=#B3FF66;" vertex="1" parent="1">
                    <mxGeometry x="610" y="570.5" width="110" height="30" as="geometry"/>
                </mxCell>
                <mxCell id="110" value="" style="group" vertex="1" connectable="0" parent="1">
                    <mxGeometry x="1255" y="749.5" width="270" height="50.5" as="geometry"/>
                </mxCell>
                <mxCell id="111" value="First&lt;span style=&quot;white-space: pre&quot;&gt;&#9;&lt;/span&gt;&lt;span style=&quot;white-space: pre&quot;&gt;&#9;&lt;/span&gt;&lt;span style=&quot;white-space: pre&quot;&gt;&#9;&lt;span style=&quot;white-space: pre&quot;&gt;&#9;&lt;span style=&quot;white-space: pre&quot;&gt;&#9;&lt;/span&gt;&lt;/span&gt;&lt;/span&gt;Rp. (monthly payment)&lt;br&gt;&amp;nbsp;&amp;nbsp;" style="rounded=0;whiteSpace=wrap;html=1;" vertex="1" parent="110">
                    <mxGeometry width="270" height="50.5" as="geometry"/>
                </mxCell>
                <mxCell id="112" value="Paid" style="text;html=1;strokeColor=none;fillColor=none;align=center;verticalAlign=middle;whiteSpace=wrap;rounded=0;" vertex="1" parent="110">
                    <mxGeometry x="236" y="35" width="30" height="10" as="geometry"/>
                </mxCell>
                <mxCell id="113" value="" style="group" vertex="1" connectable="0" parent="1">
                    <mxGeometry x="1256" y="808" width="270" height="50.5" as="geometry"/>
                </mxCell>
                <mxCell id="114" value="Second&lt;span style=&quot;white-space: pre&quot;&gt;&#9;&lt;/span&gt;&lt;span style=&quot;white-space: pre&quot;&gt;&#9;&lt;/span&gt;&lt;span style=&quot;white-space: pre&quot;&gt;&#9;&lt;span style=&quot;white-space: pre&quot;&gt;&#9;&lt;/span&gt;&lt;/span&gt;Rp. (monthly payment)&lt;br&gt;&amp;nbsp;&amp;nbsp;" style="rounded=0;whiteSpace=wrap;html=1;" vertex="1" parent="113">
                    <mxGeometry width="270" height="50.5" as="geometry"/>
                </mxCell>
                <mxCell id="115" value="Paid" style="text;html=1;strokeColor=none;fillColor=none;align=center;verticalAlign=middle;whiteSpace=wrap;rounded=0;" vertex="1" parent="113">
                    <mxGeometry x="236" y="35" width="30" height="10" as="geometry"/>
                </mxCell>
                <mxCell id="116" value="" style="group" vertex="1" connectable="0" parent="1">
                    <mxGeometry x="1257" y="867" width="270" height="50.5" as="geometry"/>
                </mxCell>
                <mxCell id="117" value="Third&lt;span style=&quot;white-space: pre&quot;&gt;&#9;&lt;/span&gt;&lt;span style=&quot;white-space: pre&quot;&gt;&#9;&lt;/span&gt;&lt;span style=&quot;white-space: pre&quot;&gt;&#9;&lt;span style=&quot;white-space: pre&quot;&gt;&#9;&lt;/span&gt;&lt;/span&gt;Rp. (monthly payment)&lt;br&gt;&amp;nbsp;&amp;nbsp;" style="rounded=0;whiteSpace=wrap;html=1;" vertex="1" parent="116">
                    <mxGeometry width="270" height="50.5" as="geometry"/>
                </mxCell>
                <mxCell id="118" value="Pay" style="text;html=1;strokeColor=none;fillColor=none;align=center;verticalAlign=middle;whiteSpace=wrap;rounded=0;shadow=1;" vertex="1" parent="116">
                    <mxGeometry x="230" y="30" width="36" height="15" as="geometry"/>
                </mxCell>
                <mxCell id="119" value="" style="group" vertex="1" connectable="0" parent="1">
                    <mxGeometry x="1600" y="640" width="270" height="110" as="geometry"/>
                </mxCell>
                <mxCell id="120" value="Third payment&lt;br&gt;Rp. (monthly payment)" style="rounded=0;whiteSpace=wrap;html=1;" vertex="1" parent="119">
                    <mxGeometry width="270" height="100" as="geometry"/>
                </mxCell>
                <mxCell id="121" value="Sure" style="rounded=0;whiteSpace=wrap;html=1;" vertex="1" parent="1">
                    <mxGeometry x="1675" y="778" width="120" height="30" as="geometry"/>
                </mxCell>
                <mxCell id="122" value="Payment Confirmation" style="rounded=0;whiteSpace=wrap;html=1;fillColor=#B3FF66;" vertex="1" parent="1">
                    <mxGeometry x="1685" y="568" width="110" height="30" as="geometry"/>
                </mxCell>
                <mxCell id="123" value="" style="group" vertex="1" connectable="0" parent="1">
                    <mxGeometry x="1960" y="639.5" width="270" height="110" as="geometry"/>
                </mxCell>
                <mxCell id="124" value="Payment confirmed!" style="rounded=0;whiteSpace=wrap;html=1;" vertex="1" parent="123">
                    <mxGeometry width="270" height="100" as="geometry"/>
                </mxCell>
                <mxCell id="125" value="Back to Home" style="rounded=0;whiteSpace=wrap;html=1;" vertex="1" parent="1">
                    <mxGeometry x="2035" y="778" width="120" height="30" as="geometry"/>
                </mxCell>
                <mxCell id="126" value="Payment Result" style="rounded=0;whiteSpace=wrap;html=1;fillColor=#B3FF66;" vertex="1" parent="1">
                    <mxGeometry x="2040" y="570.5" width="110" height="30" as="geometry"/>
                </mxCell>
                <mxCell id="127" style="edgeStyle=none;html=1;" edge="1" parent="1" source="128">
                    <mxGeometry relative="1" as="geometry">
                        <mxPoint x="1392" y="950" as="targetPoint"/>
                        <Array as="points">
                            <mxPoint x="1392" y="995"/>
                        </Array>
                    </mxGeometry>
                </mxCell>
                <mxCell id="128" value="If user click pay loan then shows Loan information" style="text;html=1;strokeColor=none;fillColor=none;align=center;verticalAlign=middle;whiteSpace=wrap;rounded=0;" vertex="1" parent="1">
                    <mxGeometry x="530" y="980" width="290" height="30" as="geometry"/>
                </mxCell>
                <mxCell id="129" value="If user click Loan Record or Pay Loan:" style="text;html=1;strokeColor=none;fillColor=none;align=center;verticalAlign=middle;whiteSpace=wrap;rounded=0;" vertex="1" parent="1">
                    <mxGeometry x="530" y="520" width="270" height="30" as="geometry"/>
                </mxCell>
                <mxCell id="130" value="&lt;font style=&quot;font-size: 40px&quot;&gt;&lt;b style=&quot;font-size: 40px&quot;&gt;Screen&lt;br&gt;Loan Apps&lt;br&gt;&lt;/b&gt;&lt;/font&gt;" style="text;html=1;strokeColor=none;fillColor=none;align=center;verticalAlign=middle;whiteSpace=wrap;rounded=0;shadow=1;fontSize=40;" vertex="1" parent="1">
                    <mxGeometry x="50" y="520" width="270" height="150" as="geometry"/>
                </mxCell>
                <mxCell id="131" value="" style="endArrow=classic;html=1;fontSize=10;" edge="1" parent="1">
                    <mxGeometry width="50" height="50" relative="1" as="geometry">
                        <mxPoint x="240" y="124.51999999999998" as="sourcePoint"/>
                        <mxPoint x="300" y="124.51999999999998" as="targetPoint"/>
                    </mxGeometry>
                </mxCell>
                <mxCell id="132" value="" style="endArrow=classic;html=1;fontSize=10;" edge="1" parent="1">
                    <mxGeometry width="50" height="50" relative="1" as="geometry">
                        <mxPoint x="500" y="124.51999999999998" as="sourcePoint"/>
                        <mxPoint x="560" y="124.51999999999998" as="targetPoint"/>
                    </mxGeometry>
                </mxCell>
                <mxCell id="133" value="" style="endArrow=classic;html=1;fontSize=10;" edge="1" parent="1">
                    <mxGeometry width="50" height="50" relative="1" as="geometry">
                        <mxPoint x="815" y="124.51999999999998" as="sourcePoint"/>
                        <mxPoint x="875" y="124.51999999999998" as="targetPoint"/>
                    </mxGeometry>
                </mxCell>
                <mxCell id="134" value="" style="endArrow=classic;html=1;fontSize=10;" edge="1" parent="1">
                    <mxGeometry width="50" height="50" relative="1" as="geometry">
                        <mxPoint x="1170" y="124.51999999999998" as="sourcePoint"/>
                        <mxPoint x="1230" y="124.51999999999998" as="targetPoint"/>
                    </mxGeometry>
                </mxCell>
                <mxCell id="135" value="" style="endArrow=classic;html=1;fontSize=10;" edge="1" parent="1">
                    <mxGeometry width="50" height="50" relative="1" as="geometry">
                        <mxPoint x="1527" y="124.51999999999998" as="sourcePoint"/>
                        <mxPoint x="1587" y="124.51999999999998" as="targetPoint"/>
                    </mxGeometry>
                </mxCell>
                <mxCell id="136" value="" style="endArrow=classic;html=1;fontSize=10;" edge="1" parent="1">
                    <mxGeometry width="50" height="50" relative="1" as="geometry">
                        <mxPoint x="820.0000000000005" y="584.9400000000003" as="sourcePoint"/>
                        <mxPoint x="880.0000000000005" y="584.9400000000003" as="targetPoint"/>
                    </mxGeometry>
                </mxCell>
                <mxCell id="137" value="" style="endArrow=classic;html=1;fontSize=10;" edge="1" parent="1">
                    <mxGeometry width="50" height="50" relative="1" as="geometry">
                        <mxPoint x="1170" y="582.4400000000003" as="sourcePoint"/>
                        <mxPoint x="1230" y="582.4400000000003" as="targetPoint"/>
                    </mxGeometry>
                </mxCell>
                <mxCell id="138" value="" style="endArrow=classic;html=1;fontSize=10;" edge="1" parent="1">
                    <mxGeometry width="50" height="50" relative="1" as="geometry">
                        <mxPoint x="1530" y="582.4400000000003" as="sourcePoint"/>
                        <mxPoint x="1590" y="582.4400000000003" as="targetPoint"/>
                    </mxGeometry>
                </mxCell>
                <mxCell id="139" value="" style="endArrow=classic;html=1;fontSize=10;" edge="1" parent="1">
                    <mxGeometry width="50" height="50" relative="1" as="geometry">
                        <mxPoint x="1890" y="584.9400000000003" as="sourcePoint"/>
                        <mxPoint x="1950" y="584.9400000000003" as="targetPoint"/>
                    </mxGeometry>
                </mxCell>
                <mxCell id="140" value="Make a New Loan" style="rounded=0;whiteSpace=wrap;html=1;" vertex="1" parent="1">
                    <mxGeometry x="530" y="280" width="270" height="30" as="geometry"/>
                </mxCell>
                <mxCell id="141" value="logout" style="rounded=0;whiteSpace=wrap;html=1;" vertex="1" parent="1">
                    <mxGeometry x="530" y="370" width="270" height="30" as="geometry"/>
                </mxCell>
                <mxCell id="142" value="Pay Loan" style="rounded=0;whiteSpace=wrap;html=1;" vertex="1" parent="1">
                    <mxGeometry x="530" y="230" width="270" height="30" as="geometry"/>
                </mxCell>
                <mxCell id="143" value="Loan Record" style="rounded=0;whiteSpace=wrap;html=1;" vertex="1" parent="1">
                    <mxGeometry x="530" y="180" width="270" height="30" as="geometry"/>
                </mxCell>
                <mxCell id="144" value="" style="group" vertex="1" connectable="0" parent="1">
                    <mxGeometry x="530" y="638" width="270" height="220" as="geometry"/>
                </mxCell>
                <mxCell id="145" value="Make a New Loan" style="rounded=0;whiteSpace=wrap;html=1;" vertex="1" parent="144">
                    <mxGeometry y="100" width="270" height="30" as="geometry"/>
                </mxCell>
                <mxCell id="146" value="logout" style="rounded=0;whiteSpace=wrap;html=1;" vertex="1" parent="144">
                    <mxGeometry y="190" width="270" height="30" as="geometry"/>
                </mxCell>
                <mxCell id="147" value="Pay Loan" style="rounded=0;whiteSpace=wrap;html=1;" vertex="1" parent="144">
                    <mxGeometry y="50" width="270" height="30" as="geometry"/>
                </mxCell>
                <mxCell id="148" value="Loan Record" style="rounded=0;whiteSpace=wrap;html=1;" vertex="1" parent="144">
                    <mxGeometry width="270" height="30" as="geometry"/>
                </mxCell>
            </root>
        </mxGraphModel>
    </diagram>
</mxfile>